<svg fill="#FFFFFF" xmlns="http://www.w3.org/2000/svg" width="16" height="15" viewBox="0 0 16 15">
    <path d="M13.716 12.724a.567.567 0 0 1-.567.567H2.964a.567.567 0 0 1-.566-.567V6.476h1.28a4.56 4.56 0 0 0-.147 1.137c0 2.508 2.027 4.542 4.526 4.542a4.535 4.535 0 0 0 4.379-5.679h1.28zm0-8.519a.567.567 0 0 1-.566.57h-1.694a.567.567 0 0 1-.564-.57V2.502c0-.314.252-.568.564-.568h1.694c.314 0 .566.254.566.568zm-5.653.57a2.835 2.835 0 1 1 0 5.669 2.835 2.835 0 0 1 0-5.67zm5.66 10.22c.938 0 1.698-.764 1.698-1.704V1.934A1.7 1.7 0 0 0 13.723.23H2.398A1.7 1.7 0 0 0 .7 1.934v11.357c0 .94.76 1.704 1.698 1.704z"></path>
</svg>