<svg fill="#FFFFFF" xmlns="http://www.w3.org/2000/svg" width="19" height="15" viewBox="0 0 19 15">
    <path d="M18.45 2.024a7.426 7.426 0 0 1-2.136.587A3.739 3.739 0 0 0 17.949.548a7.31 7.31 0 0 1-2.36.904A3.718 3.718 0 0 0 12.875.277a3.723 3.723 0 0 0-3.62 4.576A10.537 10.537 0 0 1 1.595.957a3.723 3.723 0 0 0-.503 1.875c0 1.294.657 2.434 1.653 3.104a3.731 3.731 0 0 1-1.685-.467v.046a3.728 3.728 0 0 0 2.982 3.656 3.703 3.703 0 0 1-1.677.065 3.728 3.728 0 0 0 3.472 2.59 7.448 7.448 0 0 1-5.503 1.541 10.492 10.492 0 0 0 5.697 1.675c6.838 0 10.576-5.68 10.576-10.606 0-.16-.004-.321-.01-.483a7.576 7.576 0 0 0 1.854-1.93"></path>
</svg>