<svg width="119" height="24" viewBox="0 0 119 24" fill="none" xmlns="http://www.w3.org/2000/svg">
<path fill-rule="evenodd" clip-rule="evenodd" d="M0.284092 0.844155V0.0483398H5.00051V18.9874C4.95191 21.6628 3.71498 23.3862 1.50971 23.849C0.753806 24.0074 0 23.9661 0 23.9661V23.212C0 23.212 0.341497 23.121 0.33982 23.1214C1.58345 22.7565 1.87132 21.3061 1.94925 18.9264V0.844155H0.284092ZM28.7916 0.0507016V18.1132H30.6059V18.909H24.4883V18.1132H26.047V0.846516H24.4883V0.0507016H28.7916ZM20.5658 5.94077V18.1132H22.3802V18.909H17.8213V16.5602C16.9921 18.2746 15.4392 19.2232 13.4183 19.2232C12.0691 19.2232 11.1104 18.9129 10.4869 18.2742C9.88518 17.6578 9.5927 16.7379 9.5927 15.4614V6.73658H8.21289V5.94077H12.3377V15.3309C12.3377 16.119 12.4072 17.095 12.9532 17.6544C13.2716 17.9806 13.7162 18.1398 14.3125 18.1398C15.3956 18.1398 16.3028 17.6466 16.9359 16.7139C17.5066 15.8726 17.8213 14.7213 17.8213 13.4718V6.73658H16.1348V5.94077H20.5658ZM37.1236 18.1132V5.94077H32.8203V6.73658H34.379V18.1132H32.8203V18.909H38.9383V18.1132H37.1236ZM53.0678 5.94077V18.1132H54.8821V18.909H50.3228V16.5602C49.494 18.2746 47.9416 19.2232 45.9203 19.2232C44.571 19.2232 43.6123 18.9129 42.9888 18.2742C42.3871 17.6578 42.0947 16.7379 42.0947 15.4614V6.73658H40.7148V5.94077H44.8392V15.3309C44.8392 16.119 44.9092 17.095 45.4547 17.6544C45.7736 17.9806 46.2182 18.1398 46.8149 18.1398C47.898 18.1398 48.8048 17.6466 49.4379 16.7139C50.0086 15.8726 50.3228 14.7213 50.3228 13.4718V6.73658H48.6363V5.94077H53.0678ZM89.7579 17.4763C90.5716 16.6427 90.9676 15.4438 90.9676 13.8123C90.9676 9.91091 88.407 8.97044 85.825 8.6176C88.3194 8.02224 89.5878 6.60188 89.5878 4.38828C89.5878 2.97865 89.253 1.95061 88.5645 1.24579C87.7793 0.441395 86.5537 0.0507844 84.8164 0.0507844H76.6465V0.846599H78.4101V18.1133H76.6465V18.9091H85.0209C87.2987 18.9091 88.8034 18.4537 89.7579 17.4763ZM85.5338 1.4853C85.1143 1.05563 84.5369 0.846591 83.7685 0.846591H81.461V8.13941H83.5384C85.6121 8.13941 86.3823 7.20796 86.3823 4.70247C86.3823 3.69461 86.2943 2.26438 85.5338 1.4853ZM86.6953 9.96972C86.1187 9.37951 85.3205 9.09278 84.2541 9.09278H81.461V18.1133H83.8456C87.2974 18.1133 87.7625 15.8332 87.7625 13.6028C87.7625 11.8936 87.4131 10.705 86.6953 9.96972ZM115.882 8.26888C116.33 8.21093 116.998 8.13624 118.175 8.36803L118.775 6.1819C118.398 6.05313 117.742 5.88444 116.865 5.86899C115.316 5.84108 113.796 7.41769 112.462 10.3434V5.92135H107.902V6.71717H109.717V18.117H108.056V18.8905H114.149V18.0947H112.462V13.5838C112.462 11.1062 113.587 8.56506 115.882 8.26888ZM104.155 16.1684C104.155 17.0333 104.269 17.5359 104.525 17.7978C104.819 18.0987 105.279 18.1132 106.175 18.1132V18.9091H104.163C102.773 18.9091 101.748 18.7867 101.301 17.293C100.391 18.6567 99.2486 19.2233 97.3907 19.2233C96.1756 19.2233 95.3024 18.9335 94.7199 18.3369C94.1065 17.7085 93.8203 16.7611 93.8203 15.3567C93.8203 13.2667 94.8071 12.1343 97.1192 11.5703C97.1192 11.5703 98.6528 11.2037 98.652 11.2037C99.6873 10.9453 100.465 10.7135 101.41 10.3843V9.33567C101.41 8.4201 101.34 7.4131 100.819 6.87912C100.519 6.57135 100.083 6.42198 99.4862 6.42198C98.7035 6.42198 98.2091 6.57092 97.8818 6.90616C97.5634 7.23282 97.4088 7.74447 97.4088 8.47161C97.4088 9.00516 97.3057 9.35885 97.0849 9.58506C96.8724 9.80269 96.5477 9.90356 96.062 9.90356C95.5835 9.90356 95.268 9.80784 95.0669 9.6018C94.9009 9.43182 94.8171 9.18372 94.8171 8.86436C94.8171 5.94123 98.0289 5.62573 99.4091 5.62573C101.269 5.62573 102.535 5.9966 103.28 6.76022C103.877 7.37189 104.155 8.2484 104.155 9.51853V16.1684ZM101.538 13.6817V11.2634C101.087 11.4008 98.9685 12.0476 98.9689 12.0476C97.4915 12.5018 97 13.04 97 15.3309C97 16.6435 97.199 17.4591 97.626 17.8969C97.8716 18.148 98.1871 18.2703 98.5918 18.2703C100.738 18.2703 101.538 15.4558 101.538 13.6817ZM65.2316 6.45662V9.39736H64.3768C64.3768 9.39736 64.1614 8.01906 63.2329 7.18462C62.7892 6.80731 62.1363 6.57896 61.3293 6.57896C60.6421 6.57896 60.0672 6.77984 59.7107 7.14513C59.4232 7.43959 59.2774 7.8332 59.2774 8.31438C59.2774 9.68367 60.5751 10.1322 62.0781 10.6516L62.0786 10.6518C64.0478 11.3325 66.2795 12.104 66.2795 15.1737C66.2795 16.1777 65.9322 17.0426 65.2475 17.7435C64.3433 18.6703 62.8977 19.2236 61.3804 19.2236C59.9239 19.2236 58.6074 18.9905 56.9414 18.3908V14.9595H57.9093C58.1964 17.1894 59.5087 18.4273 61.4316 18.4273C62.7481 18.4273 64.1476 17.6448 64.1476 16.1944C64.1476 14.6612 62.6802 14.1023 61.1269 13.5116L61.126 13.5113C59.3325 12.8285 57.2992 12.0544 57.2992 9.59739C57.2992 6.85367 59.3876 5.62561 61.4571 5.62561C62.7109 5.62561 63.6211 5.92569 65.0848 6.40825L65.2316 6.45662ZM35.7508 3.5812C36.6424 3.5812 37.3652 2.84076 37.3652 1.92776C37.3652 1.01477 36.6424 0.274323 35.7508 0.274323C34.8595 0.274323 34.1367 1.01477 34.1367 1.92776C34.1367 2.84076 34.8595 3.5812 35.7508 3.5812ZM98.7105 1.92776C98.7105 2.84076 97.9881 3.5812 97.0965 3.5812C96.2052 3.5812 95.4824 2.84076 95.4824 1.92776C95.4824 1.01477 96.2052 0.274323 97.0965 0.274323C97.9881 0.274323 98.7105 1.01477 98.7105 1.92776ZM102.208 3.5812C103.1 3.5812 103.822 2.84076 103.822 1.92776C103.822 1.01477 103.1 0.274323 102.208 0.274323C101.317 0.274323 100.594 1.01477 100.594 1.92776C100.594 2.84076 101.317 3.5812 102.208 3.5812Z" fill="#001489"/>
</svg>
