<?xml version="1.0" encoding="UTF-8"?>
<svg xmlns="http://www.w3.org/2000/svg" viewBox="0 0 109 40">
  <switch>
    <g>
      <path d="m60.715 29.936c-2.036 1.019-4.328 1.656-6.619 1.656-4.582 0-6.11-2.42-6.11-7.516 0-4.331 0-9.045.127-14.268h-2.8v-2.037c2.673-2.166 5.091-4.841 7.128-7.643h2.8v6.624h5.091v3.057h-5.219c-.127 4.204-.127 7.898-.127 11.083 0 4.459.255 7.006 3.946 7.006.636 0 1.273-.127 1.909-.255z"></path>
      <path d="m73.826 15.924c0-4.841-1.273-7.389-3.946-7.389s-3.946 2.548-3.946 7.389zm5.218 15.286c-2.164 0-4.2.382-8.783.382-7.255 0-11.328-4.459-11.328-12.229s4.582-13.248 11.328-13.248c6.364 0 10.437 4.713 10.437 12.484h-14.764c.382 5.478 3.055 8.153 6.873 9.427 1.909.637 4.073 1.019 6.11.892 3.437-.127 4.582-1.274 4.582-4.713v-17.453c0-3.439-.764-4.459-4.455-4.459v-2.293h13.747c4.455 0 7.51.127 9.546.892 3.183 1.274 4.837 3.439 4.837 6.242 0 3.822-2.927 6.242-8.782 6.879 7 1.019 10.437 3.694 10.437 8.535 0 2.93-1.527 5.605-3.946 7.134-2.164 1.274-7.128 1.656-10.31 1.656-5.091 0-13.492-.128-15.529-.128zm11.201-12.229c0 5.223.255 8.153.509 8.79s1.273.892 2.8.892c4.709 0 7.255-2.42 7.255-6.752s-2.8-6.242-8.528-6.242c-.382 0-1.018 0-2.037 0v3.312zm1.528-5.605c4.964 0 7.51-1.911 7.51-5.478s-2.546-5.605-7.128-5.605c-.382 0-1.018 0-1.782.127 0 3.822-.127 6.115-.127 6.879v4.076c.604.001 1.018.001 1.527.001z"></path>
      <path d="m26.094 31.21c-1.782-.764-1.782 0-1.782.51-.382 4.841-5.601 8.153-13.365 8.153-7.256 0-10.947-2.548-10.947-6.37 0-1.784.891-2.803 2.8-3.694-1.4-1.019-2.291-2.675-2.164-4.331 0-2.166 1.273-3.949 4.073-5.095-2.418-1.146-3.819-3.694-3.691-6.37 0-4.713 3.946-8.153 9.801-8.153 2.928 0 4.582.892 5.982.892h6.746v3.185h-3.691c1.146 1.274 1.782 3.057 1.655 4.713 0 4.968-3.437 7.516-10.056 7.516-1.273 0-2.673-.127-3.946-.51-1.4.637-2.164 1.401-2.164 2.166 0 1.274 1.273 1.529 4.2 1.529 1.146 0 2.8-.127 5.091-.127 3.564 0 6.364.637 8.019 1.911-.127-.764-.255-1.401-.255-2.166 0-4.968 4.328-6.115 10.056-8.025 4.71-1.529 5.091-1.529 5.091-4.076 0-2.93-.891-4.331-2.8-4.331-1.782 0-3.182 1.401-3.182 3.057v.255c0 .637.127 1.146.255 1.783-.891 1.019-2.037 1.529-3.437 1.529-1.909.127-3.564-1.274-3.691-3.185 0-.127 0-.127 0-.255 0-3.057 3.564-5.732 9.292-5.732 7.383 0 10.31 2.803 10.31 9.172 0 3.439-.382 7.134-.382 11.083 0 1.783.636 2.42 2.673 2.42v2.038c-1.655.382-3.437.637-5.091.637-2.291 0-3.437-.637-3.946-2.675-2.164 1.784-5.428 2.93-7.787 3.035-1.083.041-2.522.021-3.667-.489zm3.818-7.134c-.255 1.911 1.146 3.567 3.055 3.822h.382c2.673 0 3.946-1.784 3.946-5.35v-4.331c-4.964 1.528-7.383 2.802-7.383 5.859zm-15.274-9.936c0-3.822-.891-5.732-3.309-5.732s-3.309 1.911-3.309 5.732c0 3.822.764 5.733 3.437 5.733s3.181-2.039 3.181-5.733zm-9.674 18.217c0 2.802 2.673 5.35 7.51 5.35 4.073 0 6.237-1.911 6.237-4.076 0-1.656-1.018-2.293-3.055-2.293-1.655 0-2.8 0-3.309 0-2.418 0-4.71-.127-7.128-.382-.255.509-.255.891-.255 1.401z"></path>
    </g>
  </switch>
</svg>
