<svg width="18" height="18" viewBox="0 0 18 18" fill="none" xmlns="http://www.w3.org/2000/svg">
<path d="M12.5554 8.1106L8.99936 11.6666L5.44336 8.1106" stroke="#141E55" strokeWidth="1.5" strokeLinecap="round" strokeLinejoin="round"/>
<path d="M9.00021 1.00024V11.6672" stroke="#141E55" strokeWidth="1.5" strokeLinecap="round" strokeLinejoin="round"/>
<path d="M17.75 13.4443C17.75 13.0301 17.4142 12.6943 17 12.6943C16.5858 12.6943 16.25 13.0301 16.25 13.4443H17.75ZM1.75 13.4443C1.75 13.0301 1.41421 12.6943 1 12.6943C0.585786 12.6943 0.25 13.0301 0.25 13.4443H1.75ZM16.25 13.4443C16.25 14.9941 14.9937 16.2503 13.444 16.2503V17.7503C15.8221 17.7503 17.75 15.8225 17.75 13.4443H16.25ZM13.444 16.2503H4.556V17.7503H13.444V16.2503ZM4.556 16.2503C3.00629 16.2503 1.75 14.9941 1.75 13.4443H0.25C0.25 15.8225 2.17786 17.7503 4.556 17.7503V16.2503Z" fill="#141E55"/>
</svg>
